<?xml version="1.0" encoding="utf-8"?>
<!-- Generator: Adobe Illustrator 25.0.1, SVG Export Plug-In . SVG Version: 6.00 Build 0)  -->
<svg version="1.1" id="Layer_1" xmlns="http://www.w3.org/2000/svg" xmlns:xlink="http://www.w3.org/1999/xlink" x="0px" y="0px"
	 viewBox="0 0 50 50" style="enable-background:new 0 0 50 50;" xml:space="preserve">
<style type="text/css">
	.st0{fill:#B3D359;}
	.st1{fill:#91B354;}
	.st2{fill:#7A9344;}
	.st3{fill:#473424;}
</style>
<g>
	<path class="st0" d="M42.63,37.96c-0.69-0.66-1.47-1.21-2.31-1.65c0.22-0.4,0.67-0.75,0.98-0.91c0.4-0.21,0.08-0.59-0.36-0.69
		c-0.59-0.14-1.58-0.06-2.18-0.09c1.08-1.24,1.8-3.25,1.66-4.88c-0.12-1.43-0.95-3.78-1.26-5.18c-0.3-1.38-0.14-1.82-0.45-3.2
		c-0.29-1.33-0.54-2.69-0.91-4c-0.32-1.11-0.86-2.9-1.65-3.75c-1.42-1.54-2.64-0.49-5.65-3.09c-1.53-1.32-0.38-1.82-2.58-3.43
		c-0.14-0.1-1.3-1.04-1.41-0.96c-0.38-0.03,0.18,1.63,0.25,1.79c-1-0.73-2.48-1.15-3.74-1.16c-0.03,0-0.23-0.24-0.26-0.23
		c-1.87-1.73-4.13-3.04-6.57-3.79c-0.66-0.2-1.43-0.48-2.13-0.35c-0.67,0.13-1.04,0.64-1.29,1.24c-0.51,1.25-0.61,2.84-0.81,4.17
		c-0.31-0.18-0.86-0.64-1.17-0.81c-0.2-0.11-0.38-0.09-0.53,0.01c-0.01,0-0.03,0-0.04,0c-0.31,0-0.5,0.25-0.53,0.53
		c-0.11,1,0.09,2.31-0.03,3.31c-0.22-0.24-0.67-0.86-0.73-1.2C8.91,9.33,8.56,9.18,8.3,9.25C8,9.33,7.89,9.62,7.93,9.9
		c0.23,1.36,0.18,2.74-0.12,4.08c-0.03-0.15-0.06-0.3-0.09-0.45c-0.14-0.67-1.16-0.39-1.02,0.28c0.42,2.04,0.32,4.26,1.22,6.25
		c0.46,1.02-0.25,2.23,0.2,3.26c0.57,1.31,1.7,2.63,2.71,3.07c0.06,1.04,0.62,1.88,1.07,2.81l-0.99,0.31
		c-0.28,0.14-0.3,0.48-0.19,0.73c1.68,3.71,6.02,5.95,10,6.67c-1.04,0.73-1.98,2.22-2.32,3.26c-0.17,0.53,0.52,0.86,0.89,0.52
		c0.82-0.75,4.03-0.52,4.03-0.52s0.35,0.48,2.13,1.65c1.13,0.74,2.36,0.97,3.71,0.97c1.2,0,2.56,0.16,3.73-0.1
		c0.02,0.3,0.04,0.61,0.05,0.91c0.03,0.43,0.36,0.38,0.78,0.13c1.6-0.95,3.04-1.79,3.04-1.79s0.59,0.63,0.86,0.91
		c0.55,0.58,0.92,1.35,1.33,2.03c0.5,0.85,0.99,1.71,1.45,2.58c0.28,0.52,1.2,0.16,0.97-0.41c-1.08-2.62-2.38-5.2-3.45-7.81
		c0.92,0.01,1.56-0.61,2.01-1.16c0.42-0.51,1.5,0.45,2.06,0.73C42.51,39.05,43.09,38.39,42.63,37.96z"/>
	<path class="st1" d="M42.63,37.96c-0.69-0.66-1.47-1.21-2.31-1.65c0.22-0.4,0.67-0.75,0.98-0.91c0.4-0.21,0.08-0.59-0.36-0.69
		c-0.59-0.14-1.58-0.06-2.18-0.09c1.08-1.24,1.8-3.25,1.66-4.88c-0.12-1.43-0.95-3.78-1.26-5.18c-0.02-0.1-0.04-0.18-0.06-0.27
		c-0.23,0.01-0.46-0.06-0.64-0.24c-0.15-0.14-0.28-0.3-0.41-0.46c-0.07,1.46-0.59,2.86-1.74,3.8c-0.21,0.17-0.49,0.24-0.76,0.22
		c-0.01,0.23-0.06,0.44-0.2,0.63c-3.08,4.29-1.27,5.98-1.27,5.98c-1.66-1.62-11.24-3.88-11.24-3.88s-0.24-2.24,0.38-3.36
		c0.49-0.89-7.97-3.34-7.97-3.34s-0.86-2.55,0.21-4.98c0.41-2.06,0.54-4.09,0.87-4.94c0.22-0.58,1.57,0.89,1.69,0.39
		c0.1-0.39-1.03-2-0.33-2.36c2.17-1.09,5.51,0.4,7.12,1.61c0.44,0.33,0.71-0.63,2.85-0.16c2.4-0.71,7.73,5.46,7.68,8.13
		c-0.02,0.72,0.81-2.22,0.93-3.43c0.12-1.14-0.08-3.53-0.87-4.39c-1.42-1.54-1.9-0.42-4.91-3.02c-1.53-1.32-0.38-1.82-2.58-3.43
		c-0.14-0.1-1.3-1.04-1.41-0.96c-0.38-0.03,0.18,1.63,0.25,1.79c-1-0.73-2.48-1.15-3.74-1.16c-0.03,0-0.23-0.24-0.26-0.23
		c-1.87-1.73-4.13-3.04-6.57-3.79c-0.66-0.2-1.43-0.48-2.13-0.35c-0.67,0.13-1.04,0.64-1.29,1.24c-0.51,1.25-0.61,2.84-0.81,4.17
		c-0.31-0.18-0.86-0.64-1.17-0.81c-0.2-0.11-0.38-0.09-0.53,0.01c-0.01,0-0.03,0-0.04,0c-0.31,0-0.5,0.25-0.53,0.53
		c-0.11,1,0.09,2.31-0.03,3.31c-0.22-0.24-0.67-0.86-0.73-1.2C8.91,9.33,8.56,9.18,8.3,9.25C8,9.33,7.89,9.62,7.93,9.9
		c0.23,1.36,0.18,2.74-0.12,4.08c-0.03-0.15-0.06-0.3-0.09-0.45c-0.14-0.67-1.16-0.39-1.02,0.28c0.41,1.96,1,4.26,1.22,6.25
		c0.13,1.2-0.28,2.15,0.2,3.26c0.57,1.31,1.7,2.63,2.71,3.07c0.06,1.04,0.62,1.88,1.07,2.81l-0.99,0.31
		c-0.28,0.14-0.3,0.48-0.19,0.73c1.68,3.71,6.02,5.95,10,6.67c-1.04,0.73-1.98,2.22-2.32,3.26c-0.17,0.53,0.52,0.86,0.89,0.52
		c0.82-0.75,4.03-0.52,4.03-0.52s0.35,0.48,2.13,1.65c1.13,0.74,2.36,0.97,3.71,0.97c1.2,0,2.56,0.16,3.73-0.1
		c0.02,0.3,0.04,0.61,0.05,0.91c0.03,0.43,0.36,0.38,0.78,0.13c1.6-0.95,3.04-1.79,3.04-1.79s0.59,0.63,0.86,0.91
		c0.55,0.58,0.92,1.35,1.33,2.03c0.5,0.85,0.99,1.71,1.45,2.58c0.28,0.52,1.2,0.16,0.97-0.41c-1.08-2.62-2.38-5.2-3.45-7.81
		c0.92,0.01,1.56-0.61,2.01-1.16c0.42-0.51,1.5,0.45,2.06,0.73C42.51,39.05,43.09,38.39,42.63,37.96z"/>
	<path class="st2" d="M36.37,38.89c-1.31-0.74-1.51-1.16-1.34-2.35c0,0,0.1-0.53,0.1-0.77c-0.1-0.14-0.78-1.09-0.82-1.15
		c-0.15-0.18-1.19-0.91-1.3-1.1c-2.08-1.61-10.14-3.17-10.14-3.17c-0.09-0.56-0.2-0.98-0.2-0.98S12.18,29.13,11.9,29.2
		c-0.27,0.07-1.79-3.25-0.53-7.3l3.91,1.74c0,0-0.46-0.66-0.35-2.24c0.02-0.27-1.13-0.39-1.38-0.78c-1.46-2.3-2.22-1.69-2.66-2.64
		c-0.48-1.05,0.42-3.71,0.42-3.71l-0.6,1.1c0,0-1.11,0.14-1.03-4.14C9.69,10.94,8.44,8.4,8.44,8.4S8.13,9.53,8.18,9.81
		c0.23,1.36-0.06,2.83-0.37,4.16c0-1.09-1.16-1.22-1.11-0.17c0.11,2.53,0.54,4.45,1.1,5.83c0.42,1.04-0.14,2.64,0.32,3.68
		c0.57,1.31,1.7,2.63,2.71,3.07c0.06,1.04,0.62,1.88,1.07,2.81l-0.99,0.31c-0.28,0.14-0.3,0.48-0.19,0.73
		c1.68,3.71,6.02,5.95,10,6.67c-1.04,0.73-1.98,2.22-2.32,3.26c-0.17,0.53,0.52,0.86,0.89,0.52c0.82-0.75,4.03-0.52,4.03-0.52
		s0.35,0.48,2.13,1.65c1.13,0.74,2.36,0.97,3.71,0.97c1.2,0,2.56,0.16,3.73-0.1c0.02,0.3,0.04,0.61,0.05,0.91
		c0.03,0.43,0.36,0.38,0.78,0.13c1.6-0.95,3.04-1.79,3.04-1.79s0.59,0.63,0.86,0.91c0.55,0.58,0.92,1.35,1.33,2.03
		c0.5,0.85,0.99,1.71,1.45,2.58c0.12,0.22,0.35,0.28,0.57,0.23c0.01-0.3-0.25-0.41-0.25-0.71C40.63,46.79,36.76,40.6,36.37,38.89z"
		/>
	<g>
		<g>
			<g>
				<path class="st3" d="M32.45,37.68c0.66-0.53,1.64-0.47,2.22-1.04c0.29-0.26,0.47-0.67,0.3-1.01c-0.15-0.33-0.52-0.58-0.83-0.85
					c-0.64-0.51-1.22-1.11-1.92-1.54c-0.68-0.45-1.42-0.76-2.22-0.94l-9.76-2.03l0.35-0.2c-0.45,1.45-0.45,3.06,0.13,4.47
					c0.57,1.4,1.72,2.57,3.14,3.09c1.45,0.52,3.06,0.41,4.64,0.43l2.38,0.03c0.4,0,0.79,0.03,1.18-0.04
					c0.37-0.06,0.79-0.25,0.91-0.64c-0.1,0.4-0.51,0.63-0.89,0.71c-0.39,0.1-0.8,0.1-1.19,0.12l-2.37,0.11
					c-1.57,0.04-3.2,0.21-4.79-0.29c-1.59-0.5-2.86-1.79-3.5-3.31c-0.64-1.53-0.67-3.27-0.2-4.85c0.04-0.15,0.2-0.24,0.35-0.2
					l4.88,1.06c1.63,0.37,3.25,0.68,4.88,1.1c0.82,0.21,1.63,0.58,2.32,1.07c0.71,0.47,1.28,1.1,1.91,1.65
					c0.3,0.29,0.65,0.53,0.84,0.98c0.19,0.46-0.08,0.95-0.41,1.21C34.08,37.33,33.14,37.19,32.45,37.68z"/>
			</g>
			<g>
				<path class="st3" d="M35.36,36.05c0.49-0.48,1.17-0.69,1.8-0.89c0.64-0.21,1.2-0.54,1.67-1c0.47-0.45,0.87-0.99,1.15-1.57
					c0.24-0.56,0.44-1.26,0.43-1.85c-0.05-0.61-0.19-1.31-0.29-1.96c-0.1-0.66-0.21-1.32-0.38-1.95c-0.31-1.24-1.03-2.45-2.18-2.86
					l0.38-0.3c0.08,1.06,0.13,2.29-0.42,3.32c-0.52,1.02-1.19,1.85-1.8,2.76c-0.61,0.89-1.28,1.76-1.53,2.78
					c-0.11,0.49-0.03,1.04,0.11,1.55c0.16,0.5,0.38,1.02,0.8,1.38c-0.45-0.31-0.74-0.82-0.93-1.33c-0.19-0.52-0.32-1.07-0.24-1.65
					c0.2-1.13,0.88-2.05,1.44-2.97c0.55-0.93,1.21-1.83,1.68-2.75c0.47-0.92,0.42-1.98,0.33-3.05c-0.01-0.16,0.1-0.3,0.26-0.31
					c0.04,0,0.08,0,0.12,0.01c1.47,0.49,2.24,1.95,2.55,3.26c0.18,0.67,0.27,1.34,0.36,2.01c0.08,0.68,0.22,1.31,0.26,2.04
					c0,0.37-0.09,0.72-0.19,1.05c-0.1,0.32-0.21,0.66-0.38,0.98c-0.33,0.62-0.78,1.16-1.3,1.62c-0.51,0.47-1.17,0.78-1.83,0.94
					C36.56,35.49,35.9,35.63,35.36,36.05z"/>
			</g>
			<g>
				<path class="st3" d="M37.51,25.37c-0.16,0.86-0.66,1.63-1.18,2.31c-0.52,0.69-1.1,1.32-1.55,2c-0.46,0.67-0.81,1.44-0.98,2.22
					c-0.15,0.78-0.12,1.67,0.47,2.32c-0.37-0.22-0.64-0.62-0.79-1.04c-0.14-0.43-0.17-0.89-0.13-1.34c0.08-0.91,0.45-1.75,0.94-2.49
					C35.29,27.86,36.72,26.91,37.51,25.37z"/>
			</g>
			<g>
				<path class="st3" d="M35.48,28.26c0.2-1.24-0.14-2.49-0.81-3.49c-0.65-1.01-1.65-1.81-2.79-2.1c-1.12-0.33-2.4-0.04-3.69-0.33
					c-1.27-0.26-2.46-0.92-3.35-1.86l0.46-0.32c0.46,0.93,0.39,2.02,0.11,2.93c-0.27,0.93-0.74,1.77-1.22,2.58
					c-0.47,0.79-0.9,1.62-1.17,2.49c-0.27,0.87-0.33,1.84,0.08,2.69c-0.52-0.8-0.54-1.84-0.33-2.75c0.21-0.93,0.63-1.8,1.06-2.63
					c0.43-0.82,0.83-1.66,1.08-2.52c0.24-0.86,0.28-1.78-0.12-2.53c-0.07-0.14-0.02-0.31,0.12-0.38c0.11-0.06,0.25-0.03,0.33,0.05
					l0.01,0.01c0.84,0.84,1.91,1.44,3.06,1.7c1.14,0.3,2.42,0.01,3.71,0.4c1.26,0.39,2.28,1.32,2.92,2.42
					C35.57,25.71,35.82,27.06,35.48,28.26z"/>
			</g>
			<g>
				<path class="st3" d="M39.18,24.88c-0.11-1.29-0.3-2.58-0.58-3.84c-0.26-1.26-0.6-2.51-1.03-3.72c-0.44-1.2-0.92-2.42-1.57-3.48
					c-0.65-1.03-2.02-1.14-3.27-1.16l0.06-0.59c1.27,0.24,2.57,0.9,3.22,2.13c0.63,1.24,0.45,2.63,0.19,3.83
					c-0.28,1.22-0.52,2.43-0.68,3.66c-0.18,1.23-0.26,2.47-0.3,3.72c-0.09-1.25-0.07-2.5,0.01-3.75c0.09-1.25,0.29-2.5,0.52-3.72
					c0.19-1.2,0.34-2.47-0.22-3.49c-0.55-1.01-1.7-1.6-2.85-1.8c-0.16-0.03-0.27-0.18-0.24-0.34c0.03-0.15,0.16-0.25,0.3-0.25
					c0.65,0.02,1.33,0.06,2,0.24c0.66,0.18,1.34,0.6,1.71,1.21c0.69,1.17,1.17,2.38,1.55,3.64C38.76,19.67,39.21,22.28,39.18,24.88z
					"/>
			</g>
			<g>
				<path class="st3" d="M35.69,18.31c-0.66-2.16-1.75-4.13-3.19-5.8c-0.36-0.42-0.76-0.81-1.16-1.17c-0.39-0.38-0.79-0.57-1.35-0.7
					c-1.09-0.28-2.18-0.55-3.26-0.88l0.25-0.23c0.15,1.2,0.27,2.39,0.36,3.6c-0.29-1.17-0.54-2.35-0.76-3.54
					c-0.02-0.11,0.05-0.21,0.16-0.23c0.03,0,0.05,0,0.07,0l0.02,0c1.11,0.21,2.2,0.48,3.3,0.73c0.28,0.06,0.57,0.13,0.86,0.27
					c0.29,0.14,0.54,0.33,0.76,0.53c0.42,0.4,0.82,0.81,1.18,1.26C34.4,13.91,35.37,16.08,35.69,18.31z"/>
			</g>
			<g>
				<path class="st3" d="M35.37,21.35c-0.32-1.19-0.83-2.3-1.49-3.31c-0.66-1.01-1.5-1.89-2.42-2.65c-0.93-0.75-1.98-1.35-3.1-1.74
					c-1.1-0.39-2.35-0.69-3.32-0.14l0.11-0.34c0.54,1.34,0.32,2.71,0.23,4c-0.08,1.29-0.27,2.63,0.33,3.82
					c-0.38-0.54-0.55-1.21-0.63-1.86c-0.08-0.66-0.08-1.32-0.06-1.98c0.02-0.66,0.04-1.31,0-1.95c-0.04-0.63-0.11-1.27-0.36-1.82
					c-0.06-0.12-0.01-0.27,0.11-0.34c0.59-0.36,1.29-0.44,1.94-0.39c0.65,0.05,1.26,0.23,1.86,0.43c1.18,0.44,2.27,1.1,3.24,1.9
					C33.7,16.61,35.03,18.91,35.37,21.35z"/>
			</g>
			<g>
				<path class="st3" d="M25.06,15.96c-0.72-0.36-1.51-0.48-2.31-0.53c-0.79-0.06-1.6-0.08-2.41-0.22c-1.61-0.26-3.16-0.9-4.54-1.77
					l0.45-0.3c0.19,0.93,0.12,1.87-0.02,2.77c-0.15,0.9-0.37,1.78-0.6,2.65c-0.23,0.86-0.45,1.72-0.54,2.6
					c-0.11,0.88-0.05,1.77,0.21,2.64c-0.39-0.81-0.53-1.75-0.51-2.66c0.03-0.91,0.2-1.81,0.37-2.69c0.18-0.88,0.4-1.75,0.52-2.62
					c0.13-0.87,0.13-1.74-0.01-2.59l0-0.01c-0.03-0.16,0.08-0.31,0.24-0.33c0.08-0.01,0.15,0.01,0.21,0.05
					c1.3,0.88,2.78,1.46,4.31,1.83c0.76,0.19,1.56,0.25,2.36,0.38C23.58,15.3,24.4,15.49,25.06,15.96z"/>
			</g>
			<g>
				<path class="st3" d="M22.79,29.41c-2.25-0.22-4.51,0.01-6.77,0.08c-1.13,0.06-2.26,0.07-3.39,0.11l-0.85,0.02
					c-0.27,0.01-0.62,0-0.72,0.05c-0.03,0.03-0.01-0.03-0.01,0.07c0.01,0.1,0.06,0.25,0.08,0.38c0.07,0.26,0.15,0.52,0.25,0.77
					c0.79,2.03,2.61,3.55,4.6,4.46c2.02,0.94,4.27,1.34,6.48,1.81c-2.25-0.22-4.53-0.5-6.66-1.39c-2.12-0.87-4.06-2.46-4.98-4.66
					c-0.11-0.27-0.2-0.56-0.26-0.85c-0.03-0.15-0.07-0.27-0.09-0.45c-0.05-0.18,0.09-0.56,0.33-0.64c0.44-0.16,0.67-0.07,0.96-0.1
					l0.85-0.01c1.13-0.01,2.26-0.04,3.39-0.02C18.26,29.06,20.56,28.94,22.79,29.41z"/>
			</g>
			<g>
				<path class="st3" d="M23.21,26.78c-0.95-0.51-1.89-1.04-2.86-1.48c-0.97-0.45-1.98-0.76-3.02-0.92
					c-1.04-0.17-2.18-0.27-3.2-0.81c-1-0.51-1.81-1.24-2.8-1.39l0.29-0.16c-0.99,2.28-0.88,5.04,0.39,7.29
					c-1.56-2.06-1.95-5.05-0.89-7.51c0.05-0.12,0.17-0.18,0.29-0.16c1.19,0.19,2.08,0.93,2.98,1.41c0.89,0.5,1.95,0.62,3.02,0.82
					c1.09,0.19,2.13,0.62,3.08,1.13C21.46,25.52,22.34,26.14,23.21,26.78z"/>
			</g>
			<g>
				<path class="st3" d="M14.79,21.33c-1.02-0.58-2.18-0.58-3.33-0.63c-0.58-0.01-1.17-0.04-1.76-0.15
					c-0.59-0.1-1.19-0.31-1.71-0.68l0.46-0.16c-0.35,1.2-0.31,2.52,0.11,3.72c0.42,1.2,1.25,2.26,2.32,3.04
					c-1.22-0.55-2.22-1.6-2.77-2.86c-0.55-1.27-0.63-2.73-0.23-4.07c0.05-0.16,0.21-0.25,0.36-0.2c0.03,0.01,0.07,0.03,0.09,0.05
					c0.86,0.63,2.02,0.73,3.16,0.87c0.57,0.07,1.16,0.13,1.73,0.28C13.79,20.7,14.35,20.94,14.79,21.33z"/>
			</g>
			<g>
				<path class="st3" d="M13.55,20.62c-0.55-0.68-1.18-1.28-1.86-1.78c-0.69-0.52-1.44-0.91-2.23-1.23
					c-0.78-0.33-1.69-0.73-2.25-1.53c-0.57-0.77-0.78-1.68-0.93-2.55l0.55-0.08c0.15,1.15,0.31,2.29,0.42,3.44
					c0.06,0.58,0.11,1.16,0.22,1.71c0.11,0.55,0.33,1.11,0.82,1.45c-0.55-0.24-0.86-0.83-1.05-1.38c-0.2-0.57-0.26-1.14-0.38-1.71
					c-0.22-1.14-0.4-2.29-0.58-3.45c-0.02-0.15,0.08-0.29,0.23-0.32c0.15-0.02,0.29,0.08,0.32,0.22l0,0.02
					c0.16,0.84,0.4,1.65,0.85,2.31c0.44,0.67,1.2,1.04,1.99,1.4C11.27,17.87,12.69,19.09,13.55,20.62z"/>
			</g>
			<g>
				<path class="st3" d="M6.39,13.18c0.1-0.16,0.26-0.22,0.41-0.26c0.15-0.05,0.3-0.03,0.44-0.01c0.14,0.03,0.26,0.06,0.38,0.14
					c0.12,0.07,0.23,0.14,0.37,0.26c-0.13,0.13-0.29,0.17-0.44,0.2c-0.15,0.03-0.29,0.01-0.42,0c-0.13-0.03-0.25-0.06-0.36-0.12
					C6.66,13.32,6.55,13.26,6.39,13.18z"/>
			</g>
			<g>
				<path class="st3" d="M15.18,18.06c-0.56-0.74-1.16-1.42-1.83-2c-0.67-0.59-1.39-1.12-2.17-1.54l0.38-0.11
					c-0.3,0.48-0.52,1.02-0.65,1.6c-0.12,0.57-0.16,1.17-0.09,1.79c-0.25-0.57-0.35-1.21-0.3-1.84c0.04-0.64,0.22-1.27,0.55-1.84
					c0.07-0.13,0.24-0.18,0.37-0.11l0.01,0.01c0.85,0.42,1.62,0.99,2.27,1.68C14.34,16.39,14.87,17.19,15.18,18.06z"/>
			</g>
			<g>
				<path class="st3" d="M24.84,13.38c-0.75-0.52-1.56-0.86-2.4-1.1c-0.85-0.23-1.71-0.38-2.6-0.49c-0.44-0.06-0.88-0.12-1.29-0.12
					c-0.21,0-0.41,0.02-0.6,0.07c-0.09,0.02-0.2,0.06-0.26,0.09c-0.05,0.03-0.04,0-0.06,0.07c0.01,0.8,0.27,1.7,0.69,2.48
					c-0.63-0.67-1.04-1.51-1.15-2.51c-0.02-0.15,0.11-0.41,0.26-0.48c0.14-0.08,0.24-0.12,0.36-0.16c0.24-0.08,0.49-0.12,0.73-0.13
					c0.49-0.02,0.94,0.05,1.39,0.09c0.9,0.12,1.81,0.3,2.67,0.64C23.44,12.18,24.26,12.67,24.84,13.38z"/>
			</g>
			<g>
				<path class="st3" d="M26.79,9.71c-0.78-0.26-1.54-0.54-2.31-0.78c-0.77-0.23-1.54-0.46-2.32-0.64l-0.58-0.14
					c-0.12-0.03-0.08,0-0.04-0.04c0.02-0.03-0.01,0.02-0.02,0.09c-0.04,0.36-0.04,0.78-0.06,1.17c-0.01,0.8,0.04,1.6,0.11,2.42
					c-0.31-0.76-0.49-1.58-0.57-2.4c-0.05-0.42-0.06-0.81-0.04-1.26c0.02-0.13,0.03-0.29,0.21-0.46c0.2-0.18,0.47-0.12,0.54-0.1
					l0.6,0.13c0.8,0.2,1.59,0.45,2.34,0.79C25.4,8.84,26.13,9.23,26.79,9.71z"/>
			</g>
			<g>
				<path class="st3" d="M19.55,11.18c-0.61-0.66-1.5-0.87-2.35-1c-0.86-0.14-1.76-0.29-2.61-0.56c-1.7-0.57-3.3-1.49-4.63-2.72
					l0.49-0.18c-0.22,1.5-0.32,3.02-0.44,4.54c-0.05,0.76-0.1,1.53-0.1,2.27c0.01,0.73,0.16,1.55,0.83,1.97
					C10,15.19,9.73,14.3,9.64,13.55c-0.08-0.78-0.06-1.54-0.07-2.31c-0.01-1.54,0.13-3.07,0.3-4.6c0.02-0.16,0.16-0.27,0.32-0.26
					c0.06,0.01,0.12,0.03,0.16,0.07l0.01,0.01c0.65,0.57,1.32,1.11,2.06,1.56c0.74,0.45,1.52,0.82,2.33,1.13
					c0.81,0.32,1.65,0.52,2.52,0.72C18.1,10.1,19.05,10.42,19.55,11.18z"/>
			</g>
			<g>
				<path class="st3" d="M9.74,10.98c-0.77-0.81-1.26-1.9-1.4-3.05L8.81,8c-0.42,1.38-0.12,2.91-0.35,4.48
					c-0.1,0.81-0.47,1.49-0.46,2.19c0,0.71,0.23,1.45,0.7,2.06c-0.59-0.49-1-1.24-1.07-2.04c-0.1-0.83,0.23-1.58,0.28-2.29
					c0.08-0.72,0.04-1.47,0.07-2.24c0.02-0.77,0.08-1.57,0.38-2.32l0.01-0.02c0.05-0.12,0.19-0.18,0.31-0.13
					C8.76,7.72,8.82,7.8,8.82,7.9C8.85,8.96,9.18,10.02,9.74,10.98z"/>
			</g>
			<g>
				<path class="st3" d="M21.27,11.3c-0.45-0.77-1.09-1.37-1.81-1.84c-0.72-0.46-1.52-0.8-2.34-1.09c-0.82-0.3-1.67-0.58-2.49-0.91
					l-0.31-0.12c-0.13-0.06-0.16-0.05-0.12-0.07c-0.01-0.01-0.06,0.1-0.09,0.2l-0.09,0.31c-0.13,0.42-0.18,0.85-0.2,1.3
					c-0.11-0.44-0.12-0.89-0.09-1.35c0.01-0.11,0.03-0.23,0.05-0.34c0.03-0.11,0.01-0.23,0.16-0.4c0.08-0.09,0.24-0.11,0.32-0.09
					c0.09,0.02,0.13,0.03,0.19,0.04l0.32,0.08c0.86,0.23,1.7,0.49,2.55,0.78c0.84,0.31,1.69,0.69,2.41,1.28
					C20.44,9.66,21.05,10.42,21.27,11.3z"/>
			</g>
			<g>
				<path class="st3" d="M30.16,10.22c-0.38-0.32-0.52-0.83-0.7-1.24C29.29,8.56,29,8.24,28.64,7.96c-0.34-0.28-0.75-0.54-1.13-0.82
					c-0.38-0.28-0.76-0.56-1.13-0.85l0.42-0.08c-0.05,0.02,0.04,0.48,0.09,0.77l0.19,0.97c0.15,0.65,0.31,1.29,0.48,1.95
					c-0.35-0.58-0.64-1.19-0.86-1.83c-0.11-0.32-0.23-0.64-0.31-0.97L26.26,6.6c-0.03-0.16-0.11-0.4,0.05-0.69
					c0.07-0.14,0.24-0.19,0.38-0.11l0.03,0.02l0.01,0.01c0.77,0.57,1.52,1.1,2.25,1.76c0.36,0.34,0.66,0.81,0.77,1.29
					C29.87,9.35,29.9,9.81,30.16,10.22z"/>
			</g>
			<g>
				<path class="st3" d="M25.67,9.16c-1.78-1.42-3.61-2.77-5.52-3.97c-0.95-0.61-1.92-1.22-2.9-1.75c-0.98-0.52-2.03-0.93-3.09-0.94
					l0.13-0.54c1.57,0.84,2.98,1.99,4.08,3.39c1.11,1.38,1.93,2.99,2.37,4.68c-0.63-1.63-1.55-3.12-2.69-4.41
					c-1.15-1.27-2.5-2.37-4.02-3.15c-0.14-0.07-0.2-0.24-0.13-0.38c0.05-0.1,0.15-0.15,0.25-0.16l0.01,0
					c1.23-0.03,2.37,0.45,3.37,1.01c1.01,0.57,1.96,1.18,2.91,1.83C22.3,6.09,24.07,7.53,25.67,9.16z"/>
			</g>
			<g>
				<path class="st3" d="M13.51,2.37c-0.03,0.51-0.13,1.01-0.23,1.5c-0.1,0.49-0.24,0.97-0.38,1.45c-0.29,0.97-0.74,1.81-0.73,2.83
					c-0.25-0.46-0.27-1.02-0.2-1.54c0.06-0.52,0.22-1,0.36-1.48c0.16-0.47,0.31-0.95,0.52-1.41C13.04,3.27,13.25,2.81,13.51,2.37z"
					/>
			</g>
			<g>
				<path class="st3" d="M26.71,8.02l-0.99-0.41c-0.33-0.12-0.64-0.25-0.96-0.35c-0.32-0.11-0.65-0.2-0.98-0.3l-1.04-0.27
					c0.35-0.14,0.73-0.19,1.1-0.18c0.38,0,0.75,0.08,1.11,0.19c0.35,0.13,0.7,0.29,1,0.52C26.24,7.43,26.52,7.7,26.71,8.02z"/>
			</g>
			<g>
				<path class="st3" d="M31.43,38.21c-1.07,0.68-2.25,1.22-3.48,1.55c-1.23,0.34-2.53,0.49-3.81,0.49
					c-1.27,0.02-2.54-0.02-3.73,0.18c-1.17,0.18-2.33,0.87-2.63,1.99l-0.46-0.21c0.59-0.8,0.72-1.92,1.21-2.92
					c0.49-0.99,1.26-1.83,2.18-2.38c-0.84,0.68-1.49,1.55-1.88,2.52c-0.2,0.48-0.32,0.99-0.45,1.52c-0.14,0.52-0.3,1.07-0.63,1.56
					c-0.08,0.12-0.24,0.15-0.36,0.07c-0.09-0.06-0.13-0.17-0.1-0.27c0.35-1.42,1.74-2.23,3.02-2.45c1.31-0.23,2.58-0.12,3.84-0.13
					c1.26,0.01,2.5-0.04,3.72-0.31C29.08,39.14,30.28,38.75,31.43,38.21z"/>
			</g>
			<g>
				<path class="st3" d="M33.94,37.38c0.51,0.14,0.95,0.5,1.31,0.89c0.35,0.41,0.63,0.87,0.89,1.32l1.54,2.72l1.53,2.72
					c0.51,0.91,1.03,1.81,1.51,2.75c-0.69-0.79-1.31-1.64-1.9-2.51c-0.6-0.86-1.14-1.76-1.66-2.67c-0.51-0.92-1-1.85-1.43-2.8
					C35.3,38.88,34.86,37.91,33.94,37.38z"/>
			</g>
			<g>
				<path class="st3" d="M38.25,34.73c0.87-0.32,1.85-0.35,2.79-0.15c0.93,0.22,1.76,0.71,2.51,0.54c0.16-0.04,0.32,0.06,0.35,0.22
					c0.01,0.05,0.01,0.1,0,0.15c-0.07,0.26-0.3,0.48-0.51,0.55c-0.22,0.09-0.43,0.1-0.64,0.08c-0.43-0.04-0.74-0.25-1.04-0.35
					c-0.3-0.12-0.59-0.13-0.86,0.03c-0.27,0.16-0.47,0.46-0.68,0.74c0.1-0.33,0.24-0.67,0.52-0.95c0.28-0.3,0.78-0.32,1.13-0.23
					c0.37,0.08,0.69,0.22,0.96,0.22c0.29,0.01,0.54-0.11,0.56-0.25l0.35,0.36c-0.53,0.14-1.07,0.02-1.51-0.14
					c-0.46-0.15-0.86-0.36-1.27-0.49C40.07,34.78,39.17,34.69,38.25,34.73z"/>
			</g>
			<g>
				<path class="st3" d="M35.08,36.7c0.02-0.42,0.48-0.6,0.81-0.69c0.33-0.12,0.73-0.23,1.11-0.24c0.76-0.01,1.48,0.04,2.24,0.13
					c0.75,0.1,1.52,0.31,2.17,0.77c0.65,0.47,1.08,1.13,1.66,1.27c0.15,0.04,0.25,0.19,0.21,0.35c-0.01,0.06-0.04,0.11-0.09,0.14
					l-0.01,0.01c-0.77,0.7-2.05,0.58-2.71-0.13c-0.31-0.28-0.41-0.25-0.72,0.05c-0.24,0.29-0.63,0.71-1.09,0.84
					c-0.91,0.32-1.87,0.13-2.64-0.32c-0.77-0.42-1.37-1.38-1.05-2.23c-0.17,0.88,0.46,1.64,1.19,1.96c0.72,0.36,1.61,0.45,2.31,0.14
					c0.37-0.16,0.59-0.38,0.88-0.75c0.15-0.16,0.35-0.38,0.7-0.43c0.35-0.05,0.63,0.18,0.78,0.32c0.53,0.56,1.42,0.54,1.96,0.11
					l0.11,0.5c-0.88-0.29-1.27-1.03-1.82-1.4c-0.55-0.4-1.23-0.63-1.93-0.78c-0.7-0.14-1.45-0.23-2.17-0.28
					c-0.37-0.03-0.7,0.03-1.07,0.11C35.58,36.22,35.16,36.3,35.08,36.7z"/>
			</g>
			<g>
				<path class="st3" d="M37.83,39.14c0.42,0.61,0.77,1.26,1.12,1.9c0.35,0.64,0.66,1.3,0.97,1.97c0.3,0.67,0.59,1.34,0.85,2.03
					c0.26,0.68,0.49,1.36,0.96,1.93c-0.65-0.39-1.04-1.11-1.38-1.74c-0.35-0.64-0.66-1.31-0.97-1.97c-0.3-0.67-0.59-1.34-0.85-2.03
					C38.27,40.54,38.02,39.85,37.83,39.14z"/>
			</g>
			<g>
				<path class="st3" d="M35.96,39.63c-0.36-0.13-0.69-0.28-1.03-0.41c-0.34-0.13-0.66-0.26-0.99-0.38c-0.33-0.13-0.66-0.23-1-0.35
					c-0.34-0.12-0.69-0.22-1.05-0.35c0.37-0.11,0.76-0.13,1.14-0.1c0.38,0.02,0.76,0.12,1.12,0.24c0.36,0.14,0.7,0.31,1.01,0.54
					C35.46,39.04,35.75,39.3,35.96,39.63z"/>
			</g>
			<g>
				<path class="st3" d="M36.23,40.92c-0.42,0.43-0.92,0.78-1.44,1.09c-0.54,0.29-1.11,0.51-1.7,0.69
					c-1.18,0.34-2.42,0.41-3.64,0.33c-1.21-0.11-2.42-0.33-3.56-0.79c-0.57-0.24-1.11-0.53-1.59-0.92c-0.47-0.4-0.86-0.9-1.06-1.47
					c0.63,1.04,1.72,1.61,2.81,1.96c1.11,0.34,2.28,0.54,3.45,0.63C31.82,42.61,34.23,42.27,36.23,40.92z"/>
			</g>
			<g>
				<path class="st3" d="M36.81,41.77c-0.1,0.45-0.53,0.79-0.96,0.96c-0.43,0.17-0.86,0.28-1.21,0.46
					c-0.68,0.35-1.12,1.12-1.09,1.88l0,0.03c0.01,0.15-0.11,0.27-0.25,0.28c-0.12,0-0.22-0.07-0.26-0.17
					c-0.34-0.85-0.37-1.81-0.03-2.62c-0.03,0.87,0.15,1.69,0.52,2.4l-0.51,0.14c-0.14-1.01,0.46-2.04,1.4-2.42
					c0.46-0.19,0.92-0.2,1.32-0.3C36.14,42.29,36.55,42.16,36.81,41.77z"/>
			</g>
		</g>
		<g>
			<g>
				<path class="st3" d="M34.82,28.95c-0.19-0.29-0.32-0.59-0.46-0.88c-0.14-0.29-0.24-0.59-0.36-0.89c-0.1-0.3-0.21-0.61-0.28-0.91
					c-0.08-0.3-0.17-0.58-0.34-0.88c0.34,0.11,0.59,0.41,0.77,0.69c0.19,0.29,0.31,0.59,0.42,0.9c0.1,0.31,0.19,0.63,0.23,0.96
					C34.85,28.28,34.88,28.61,34.82,28.95z"/>
			</g>
			<g>
				<path class="st3" d="M33.97,30.38c-0.36-0.44-0.66-0.92-0.96-1.39l-0.87-1.41c-0.28-0.47-0.58-0.93-0.87-1.39
					c-0.3-0.46-0.62-0.91-0.94-1.38c0.49,0.29,0.92,0.68,1.3,1.1c0.39,0.42,0.72,0.88,1.02,1.36c0.29,0.49,0.56,0.99,0.77,1.51
					C33.64,29.3,33.83,29.83,33.97,30.38z"/>
			</g>
			<g>
				<path class="st3" d="M33.71,32.18c-0.44-0.66-0.85-1.32-1.28-1.98l-1.28-1.95l-1.32-1.92c-0.44-0.64-0.91-1.27-1.35-1.93
					c0.62,0.49,1.18,1.05,1.71,1.64c0.53,0.59,1.01,1.22,1.45,1.88c0.44,0.66,0.85,1.34,1.19,2.05
					C33.18,30.69,33.49,31.42,33.71,32.18z"/>
			</g>
			<g>
				<path class="st3" d="M32.78,33.33c-0.75-0.56-1.43-1.21-2.07-1.89c-0.65-0.68-1.22-1.42-1.76-2.19
					c-0.53-0.77-1.02-1.58-1.43-2.42c-0.42-0.84-0.78-1.7-1.04-2.6c0.49,0.8,0.95,1.6,1.45,2.38c0.5,0.78,0.99,1.55,1.52,2.3
					c0.52,0.76,1.07,1.49,1.62,2.23C31.62,31.88,32.21,32.6,32.78,33.33z"/>
			</g>
			<g>
				<path class="st3" d="M30.37,31.97c-0.53-0.3-1.01-0.68-1.45-1.1c-0.44-0.42-0.82-0.9-1.17-1.4c-0.33-0.51-0.63-1.05-0.85-1.62
					c-0.22-0.57-0.4-1.15-0.47-1.76c0.3,0.53,0.58,1.05,0.88,1.56c0.31,0.5,0.6,1,0.93,1.49c0.32,0.49,0.67,0.96,1.02,1.43
					C29.62,31.04,30,31.49,30.37,31.97z"/>
			</g>
			<g>
				<path class="st3" d="M27.27,31.26c-0.31-0.11-0.56-0.29-0.81-0.48c-0.25-0.19-0.46-0.41-0.66-0.64
					c-0.19-0.24-0.37-0.49-0.51-0.77c-0.14-0.28-0.26-0.56-0.31-0.89c0.26,0.19,0.48,0.41,0.69,0.62c0.22,0.21,0.4,0.44,0.6,0.66
					c0.18,0.23,0.37,0.46,0.53,0.71C26.96,30.72,27.13,30.97,27.27,31.26z"/>
			</g>
			<g>
				<path class="st3" d="M33.62,37.14c-0.53-0.45-1.07-0.88-1.64-1.24c-0.57-0.36-1.17-0.67-1.78-0.98
					c-0.61-0.32-1.23-0.63-1.82-0.99c-0.6-0.35-1.19-0.71-1.75-1.13c0.67,0.2,1.32,0.45,1.96,0.72c0.64,0.26,1.26,0.56,1.89,0.87
					c0.62,0.32,1.24,0.67,1.78,1.14C32.8,35.99,33.27,36.53,33.62,37.14z"/>
			</g>
			<g>
				<path class="st3" d="M32.1,37.9c-0.93-0.15-1.85-0.42-2.74-0.74c-0.89-0.32-1.75-0.73-2.59-1.18c-0.83-0.47-1.63-0.98-2.37-1.57
					c-0.75-0.58-1.45-1.22-2.08-1.93c0.79,0.53,1.55,1.06,2.34,1.55c0.79,0.49,1.58,0.98,2.4,1.42c0.81,0.46,1.64,0.87,2.47,1.28
					C30.38,37.14,31.24,37.51,32.1,37.9z"/>
			</g>
			<g>
				<path class="st3" d="M26.91,38.16c-0.4-0.15-0.79-0.21-1.2-0.32c-0.42-0.1-0.81-0.27-1.19-0.47c-0.37-0.21-0.74-0.44-1.05-0.74
					c-0.32-0.29-0.61-0.61-0.83-0.98c0.39,0.19,0.74,0.41,1.1,0.61l1.06,0.58l1.07,0.57C26.23,37.59,26.65,37.8,26.91,38.16z"/>
			</g>
			<g>
				<path class="st3" d="M35.42,35.66c0.25-0.51,0.23-1.03,0.23-1.58c-0.02-0.55,0.05-1.13,0.19-1.68c0.15-0.55,0.36-1.09,0.69-1.57
					c0.32-0.48,0.73-0.9,1.23-1.17c-0.33,0.46-0.61,0.91-0.82,1.39c-0.21,0.49-0.39,0.98-0.51,1.49c-0.14,0.51-0.21,1.03-0.31,1.57
					C36.03,34.66,35.88,35.29,35.42,35.66z"/>
			</g>
			<g>
				<path class="st3" d="M36.3,35.61c0.06-0.46,0.18-0.89,0.31-1.31c0.12-0.43,0.29-0.84,0.45-1.25l0.5-1.19
					c0.15-0.4,0.26-0.8,0.3-1.26c0.2,0.42,0.21,0.91,0.14,1.37c-0.06,0.46-0.23,0.9-0.39,1.31c-0.18,0.41-0.36,0.81-0.58,1.2
					C36.81,34.87,36.58,35.25,36.3,35.61z"/>
			</g>
			<g>
				<path class="st3" d="M37.38,35.01c0.16-0.36,0.34-0.69,0.51-1.02c0.16-0.33,0.33-0.65,0.46-0.98c0.15-0.33,0.26-0.66,0.37-1
					c0.11-0.34,0.17-0.7,0.24-1.09c0.18,0.36,0.23,0.76,0.21,1.16c-0.01,0.4-0.12,0.8-0.28,1.16c-0.16,0.36-0.37,0.71-0.63,1
					C38.01,34.55,37.72,34.81,37.38,35.01z"/>
			</g>
			<g>
				<path class="st3" d="M36.31,40.42c-0.55-0.05-1.07-0.07-1.59-0.03c-0.52,0.04-1.02,0.12-1.51,0.26
					c-0.49,0.13-0.97,0.33-1.46,0.53c-0.49,0.21-0.97,0.44-1.49,0.62c0.39-0.39,0.81-0.73,1.27-1.03c0.46-0.31,0.97-0.54,1.51-0.7
					c0.55-0.15,1.12-0.21,1.68-0.14C35.29,39.98,35.83,40.13,36.31,40.42z"/>
			</g>
			<g>
				<path class="st3" d="M35.32,36.73c0.3,0.24,0.63,0.29,0.96,0.31c0.33,0,0.69-0.01,1.04-0.04c0.35-0.01,0.7-0.05,1.06-0.07
					c0.36-0.03,0.72-0.07,1.1-0.08c-0.3,0.24-0.65,0.41-1.01,0.53c-0.36,0.13-0.74,0.19-1.12,0.22c-0.38,0.01-0.76,0.01-1.15-0.11
					C35.83,37.39,35.41,37.13,35.32,36.73z"/>
			</g>
			<g>
				<path class="st3" d="M20.07,30.48c-0.36,0.05-0.71,0.06-1.05,0.08l-1.01,0.05l-1.01,0.03c-0.34,0.01-0.68,0.02-1.05,0
					c0.3-0.22,0.63-0.35,0.97-0.46c0.34-0.11,0.7-0.16,1.06-0.18c0.36-0.01,0.72,0.01,1.07,0.09
					C19.41,30.18,19.75,30.29,20.07,30.48z"/>
			</g>
			<g>
				<path class="st3" d="M20.12,32.63c-0.5,0.19-1.06,0.22-1.61,0.14c-0.55-0.08-1.05-0.29-1.53-0.48
					c-0.48-0.21-0.95-0.42-1.41-0.68c-0.46-0.25-0.94-0.53-1.29-0.95c0.49,0.22,0.97,0.36,1.47,0.52c0.5,0.16,0.98,0.35,1.47,0.55
					c0.48,0.21,0.94,0.42,1.4,0.59C19.09,32.48,19.59,32.57,20.12,32.63z"/>
			</g>
			<g>
				<path class="st3" d="M20.84,34.93c-0.66-0.14-1.32-0.22-1.98-0.36c-0.67-0.12-1.34-0.41-1.93-0.75
					c-0.59-0.35-1.14-0.71-1.69-1.11c-0.54-0.39-1.08-0.79-1.59-1.25c0.64,0.24,1.24,0.55,1.83,0.86c0.6,0.3,1.17,0.66,1.74,0.98
					c0.57,0.34,1.14,0.6,1.76,0.82C19.6,34.36,20.26,34.56,20.84,34.93z"/>
			</g>
			<g>
				<path class="st3" d="M21.42,36.31c-0.71,0.06-1.43-0.01-2.14-0.15c-0.71-0.13-1.39-0.37-2.05-0.66
					c-0.65-0.3-1.28-0.67-1.85-1.11c-0.57-0.44-1.09-0.94-1.52-1.51c0.59,0.39,1.17,0.78,1.77,1.13c0.6,0.34,1.21,0.67,1.84,0.95
					c0.62,0.29,1.27,0.53,1.92,0.77C20.06,35.93,20.73,36.12,21.42,36.31z"/>
			</g>
			<g>
				<path class="st3" d="M22.9,28.28c-0.6-0.29-1.17-0.59-1.76-0.85c-0.59-0.25-1.18-0.51-1.79-0.72c-0.6-0.22-1.22-0.4-1.84-0.58
					c-0.62-0.17-1.26-0.31-1.9-0.46c0.66-0.1,1.33-0.07,1.99,0.01c0.67,0.08,1.32,0.25,1.95,0.47c0.63,0.23,1.24,0.51,1.8,0.88
					C21.92,27.38,22.45,27.79,22.9,28.28z"/>
			</g>
			<g>
				<path class="st3" d="M22.78,29.01c-0.54,0.01-1.06-0.13-1.56-0.25c-0.51-0.12-1-0.28-1.49-0.45c-0.49-0.18-0.97-0.35-1.45-0.58
					c-0.47-0.22-0.94-0.44-1.39-0.73c0.53,0.05,1.04,0.17,1.55,0.29c0.51,0.12,1,0.28,1.49,0.45c0.49,0.18,0.97,0.36,1.45,0.58
					C21.86,28.54,22.3,28.78,22.78,29.01z"/>
			</g>
			<g>
				<path class="st3" d="M18.61,28.94c-0.46,0.18-0.94,0-1.39-0.09c-0.45-0.11-0.88-0.27-1.31-0.45c-0.42-0.19-0.83-0.4-1.22-0.66
					c-0.38-0.26-0.77-0.54-1.05-0.93c0.43,0.19,0.84,0.35,1.26,0.52c0.42,0.16,0.83,0.34,1.24,0.52c0.41,0.19,0.82,0.36,1.22,0.57
					c0.2,0.1,0.41,0.2,0.61,0.29C18.19,28.81,18.39,28.94,18.61,28.94z"/>
			</g>
			<g>
				<path class="st3" d="M14.76,29.05c-0.33-0.02-0.63-0.11-0.92-0.23c-0.29-0.11-0.56-0.29-0.81-0.47
					c-0.24-0.2-0.48-0.41-0.67-0.66c-0.19-0.25-0.36-0.52-0.46-0.83c0.29,0.15,0.54,0.33,0.78,0.49c0.25,0.16,0.48,0.35,0.71,0.52
					c0.23,0.18,0.46,0.35,0.69,0.55C14.31,28.61,14.54,28.81,14.76,29.05z"/>
			</g>
			<g>
				<path class="st3" d="M24.83,23.38c-0.52-0.44-1-0.89-1.5-1.34l-1.47-1.33l-1.48-1.32c-0.49-0.44-1-0.88-1.49-1.35
					c0.63,0.26,1.21,0.61,1.77,0.98c0.57,0.37,1.09,0.8,1.6,1.24c0.5,0.46,0.98,0.93,1.4,1.46C24.1,22.24,24.5,22.79,24.83,23.38z"
					/>
			</g>
			<g>
				<path class="st3" d="M24,25.55c-0.54-0.36-1.02-0.78-1.49-1.21c-0.48-0.43-0.91-0.89-1.34-1.37c-0.42-0.48-0.82-0.98-1.18-1.5
					c-0.37-0.52-0.71-1.06-1-1.64c0.48,0.43,0.92,0.89,1.36,1.35c0.44,0.45,0.86,0.93,1.28,1.4c0.41,0.48,0.83,0.95,1.22,1.45
					C23.24,24.52,23.64,25.02,24,25.55z"/>
			</g>
			<g>
				<path class="st3" d="M22.99,26.74c-0.6-0.35-1.17-0.76-1.71-1.19c-0.55-0.42-1.06-0.9-1.55-1.4c-0.48-0.51-0.94-1.05-1.31-1.64
					c-0.38-0.59-0.71-1.22-0.91-1.89c0.42,0.56,0.83,1.1,1.28,1.62c0.45,0.51,0.9,1.02,1.38,1.5l1.43,1.47
					C22.06,25.7,22.54,26.19,22.99,26.74z"/>
			</g>
			<g>
				<path class="st3" d="M24.79,20.48c-0.38-0.3-0.71-0.62-1.06-0.92l-1.04-0.9l-1.05-0.88c-0.35-0.3-0.72-0.58-1.07-0.91
					c0.47,0.1,0.91,0.3,1.33,0.52c0.42,0.22,0.81,0.51,1.18,0.81c0.36,0.32,0.7,0.65,0.98,1.04C24.35,19.62,24.61,20.03,24.79,20.48
					z"/>
			</g>
			<g>
				<path class="st3" d="M25.38,18.43c-0.27-0.16-0.5-0.33-0.73-0.5c-0.23-0.16-0.44-0.34-0.67-0.5c-0.21-0.17-0.44-0.33-0.65-0.52
					c-0.22-0.18-0.44-0.36-0.66-0.58c0.32-0.01,0.61,0.07,0.89,0.18c0.29,0.1,0.54,0.27,0.79,0.45c0.23,0.19,0.46,0.4,0.63,0.65
					C25.15,17.86,25.31,18.12,25.38,18.43z"/>
			</g>
			<g>
				<path class="st3" d="M18.14,23.9c-0.28-0.06-0.51-0.2-0.72-0.36c-0.22-0.16-0.39-0.37-0.54-0.59c-0.14-0.23-0.26-0.47-0.31-0.74
					c-0.06-0.26-0.09-0.53-0.03-0.81c0.18,0.21,0.31,0.42,0.45,0.62l0.4,0.6l0.38,0.61C17.88,23.44,18.02,23.65,18.14,23.9z"/>
			</g>
			<g>
				<path class="st3" d="M34.89,25.01c-0.42-0.89-0.81-1.79-1.24-2.66c-0.43-0.87-0.87-1.73-1.38-2.55c-0.5-0.82-1.07-1.6-1.69-2.33
					c-0.63-0.73-1.33-1.4-2.1-2.01c0.9,0.4,1.72,1,2.44,1.69c0.73,0.69,1.34,1.49,1.87,2.34c0.52,0.85,0.96,1.75,1.29,2.68
					C34.42,23.1,34.7,24.04,34.89,25.01z"/>
			</g>
			<g>
				<path class="st3" d="M32.44,22.84c-0.36-0.46-0.66-0.95-0.96-1.43l-0.9-1.43c-0.29-0.48-0.61-0.93-0.93-1.39
					c-0.33-0.45-0.69-0.88-1.06-1.33c0.53,0.25,1,0.62,1.41,1.03c0.42,0.41,0.77,0.88,1.09,1.37c0.31,0.5,0.58,1.01,0.8,1.54
					C32.11,21.73,32.31,22.27,32.44,22.84z"/>
			</g>
			<g>
				<path class="st3" d="M29.88,22.03c-0.22-0.12-0.38-0.28-0.53-0.45c-0.16-0.16-0.27-0.34-0.39-0.53c-0.1-0.19-0.21-0.38-0.27-0.6
					c-0.07-0.21-0.13-0.43-0.13-0.68c0.22,0.12,0.38,0.28,0.53,0.44c0.16,0.16,0.27,0.34,0.39,0.53c0.1,0.19,0.21,0.38,0.27,0.6
					C29.81,21.57,29.87,21.78,29.88,22.03z"/>
			</g>
			<g>
				<path class="st3" d="M35.04,22.21c-0.25-0.53-0.47-1.04-0.71-1.54c-0.25-0.5-0.5-1-0.77-1.48c-0.27-0.49-0.56-0.95-0.86-1.43
					c-0.3-0.47-0.63-0.93-0.95-1.41c0.49,0.31,0.92,0.7,1.31,1.13c0.4,0.43,0.72,0.91,1.01,1.41c0.28,0.51,0.52,1.04,0.68,1.6
					C34.92,21.06,35.03,21.63,35.04,22.21z"/>
			</g>
			<g>
				<path class="st3" d="M35.98,27.26c0.02-0.6,0.08-1.18,0.13-1.75l0.15-1.73l0.16-1.73c0.06-0.58,0.1-1.16,0.19-1.75
					c0.16,0.58,0.23,1.17,0.27,1.76c0.04,0.59,0.02,1.18-0.03,1.77c-0.06,0.59-0.15,1.18-0.3,1.75
					C36.42,26.16,36.24,26.73,35.98,27.26z"/>
			</g>
			<g>
				<path class="st3" d="M36.93,26.19c0.12-0.43,0.24-0.84,0.31-1.26c0.07-0.42,0.13-0.83,0.17-1.25l0.13-1.27
					c0.05-0.43,0.09-0.87,0.2-1.31c0.14,0.43,0.21,0.87,0.26,1.31c0.05,0.44,0.04,0.89,0,1.34c-0.06,0.45-0.15,0.9-0.33,1.32
					C37.51,25.48,37.27,25.88,36.93,26.19z"/>
			</g>
			<g>
				<path class="st3" d="M35.34,18.42c-0.28-0.52-0.54-1.03-0.82-1.53c-0.28-0.5-0.56-0.99-0.86-1.47
					c-0.29-0.48-0.62-0.95-0.94-1.42c-0.33-0.47-0.68-0.92-1.02-1.41c0.51,0.3,0.96,0.69,1.37,1.11c0.42,0.42,0.77,0.9,1.09,1.4
					c0.31,0.51,0.58,1.03,0.77,1.6C35.14,17.25,35.29,17.82,35.34,18.42z"/>
			</g>
			<g>
				<path class="st3" d="M35.22,19.39c-0.41-0.68-0.82-1.36-1.26-2c-0.45-0.64-0.91-1.27-1.41-1.86c-0.49-0.6-1.02-1.17-1.57-1.73
					c-0.55-0.56-1.13-1.08-1.73-1.61c0.73,0.33,1.41,0.77,2.04,1.27c0.64,0.49,1.2,1.07,1.72,1.69c0.51,0.63,0.97,1.29,1.34,2.01
					C34.72,17.87,35.03,18.61,35.22,19.39z"/>
			</g>
			<g>
				<path class="st3" d="M25.08,15.13c0.09,0.06,0.18,0.12,0.26,0.19c0.04,0.03,0.04,0.09,0.01,0.13c-0.03,0.04-0.08,0.04-0.12,0.02
					l-0.04-0.03c-0.26-0.17-0.48-0.37-0.72-0.54c-0.23-0.19-0.45-0.38-0.67-0.57c-0.44-0.4-0.87-0.79-1.27-1.29
					c0.63,0.13,1.17,0.45,1.65,0.84c0.24,0.2,0.46,0.42,0.66,0.66c0.19,0.25,0.37,0.5,0.5,0.79l-0.15,0.12
					C25.14,15.33,25.1,15.24,25.08,15.13z"/>
			</g>
			<g>
				<path class="st3" d="M23.51,15.27c-0.33-0.14-0.61-0.31-0.89-0.47c-0.29-0.16-0.55-0.35-0.82-0.53
					c-0.26-0.19-0.53-0.37-0.79-0.58c-0.26-0.2-0.52-0.41-0.76-0.66c0.35,0.03,0.68,0.14,1,0.26c0.32,0.12,0.61,0.3,0.9,0.48
					c0.28,0.2,0.54,0.41,0.77,0.66C23.14,14.69,23.35,14.95,23.51,15.27z"/>
			</g>
			<g>
				<path class="st3" d="M21.08,14.95c-0.27,0-0.51-0.07-0.75-0.16c-0.24-0.08-0.45-0.21-0.66-0.35c-0.2-0.15-0.39-0.3-0.55-0.5
					c-0.16-0.19-0.31-0.4-0.4-0.65c0.26,0.07,0.48,0.18,0.69,0.29c0.22,0.11,0.41,0.24,0.61,0.37c0.19,0.14,0.38,0.28,0.55,0.44
					C20.75,14.56,20.93,14.73,21.08,14.95z"/>
			</g>
			<g>
				<path class="st3" d="M27.18,11.38c-0.24-0.09-0.42-0.21-0.61-0.33c-0.19-0.11-0.35-0.25-0.52-0.39
					c-0.16-0.14-0.32-0.28-0.46-0.45c-0.15-0.17-0.29-0.33-0.42-0.55c0.25,0.01,0.48,0.08,0.69,0.18c0.22,0.09,0.4,0.23,0.58,0.37
					c0.17,0.16,0.33,0.32,0.45,0.52C27.02,10.92,27.13,11.13,27.18,11.38z"/>
			</g>
			<g>
				<path class="st3" d="M27.19,12.9c-0.39-0.15-0.73-0.35-1.07-0.56c-0.34-0.2-0.65-0.44-0.96-0.68c-0.3-0.24-0.6-0.51-0.88-0.77
					c-0.28-0.25-0.56-0.49-0.95-0.63c0.41-0.11,0.85,0.06,1.21,0.26c0.37,0.19,0.67,0.44,0.98,0.68c0.31,0.25,0.61,0.5,0.89,0.79
					C26.69,12.27,26.97,12.56,27.19,12.9z"/>
			</g>
			<g>
				<path class="st3" d="M25.19,13.12c-0.36-0.08-0.68-0.23-0.99-0.39c-0.32-0.15-0.61-0.35-0.89-0.55
					c-0.28-0.21-0.55-0.43-0.79-0.69c-0.24-0.25-0.48-0.52-0.66-0.84c0.34,0.13,0.65,0.3,0.95,0.47c0.3,0.17,0.58,0.37,0.86,0.57
					c0.27,0.21,0.54,0.42,0.8,0.66C24.72,12.59,24.97,12.82,25.19,13.12z"/>
			</g>
			<g>
				<path class="st3" d="M29.46,9.9c-0.23-0.15-0.41-0.32-0.58-0.49c-0.18-0.17-0.33-0.35-0.48-0.53c-0.14-0.19-0.29-0.37-0.42-0.58
					c-0.13-0.21-0.26-0.41-0.36-0.67c0.27,0.07,0.49,0.2,0.69,0.35c0.21,0.14,0.39,0.33,0.55,0.52c0.15,0.2,0.3,0.41,0.4,0.65
					C29.37,9.38,29.45,9.63,29.46,9.9z"/>
			</g>
			<g>
				<path class="st3" d="M28.87,9.85c-0.21-0.06-0.36-0.15-0.51-0.26c-0.15-0.1-0.27-0.23-0.39-0.36c-0.11-0.14-0.21-0.28-0.28-0.45
					c-0.08-0.17-0.14-0.34-0.16-0.55c0.21,0.06,0.37,0.15,0.51,0.26c0.15,0.1,0.27,0.23,0.39,0.36c0.11,0.14,0.21,0.28,0.28,0.45
					C28.78,9.46,28.85,9.63,28.87,9.85z"/>
			</g>
			<g>
				<path class="st3" d="M15.12,19.39c-0.24-0.16-0.44-0.34-0.63-0.52c-0.2-0.17-0.36-0.37-0.54-0.55c-0.16-0.2-0.34-0.39-0.48-0.6
					c-0.15-0.21-0.31-0.43-0.43-0.69c0.28,0.07,0.53,0.2,0.75,0.36c0.23,0.15,0.43,0.34,0.61,0.54c0.17,0.21,0.34,0.43,0.46,0.68
					C14.98,18.84,15.08,19.1,15.12,19.39z"/>
			</g>
			<g>
				<path class="st3" d="M15,20.43c-0.31-0.22-0.57-0.47-0.83-0.74c-0.26-0.26-0.48-0.54-0.7-0.83c-0.21-0.29-0.41-0.59-0.58-0.91
					c-0.17-0.32-0.34-0.64-0.45-1.01c0.31,0.22,0.57,0.47,0.83,0.74c0.26,0.26,0.48,0.54,0.7,0.83c0.21,0.3,0.41,0.59,0.58,0.91
					C14.72,19.74,14.89,20.06,15,20.43z"/>
			</g>
			<g>
				<path class="st3" d="M14,20.79c-0.1-0.16-0.24-0.28-0.37-0.41l-0.38-0.4c-0.26-0.26-0.49-0.55-0.73-0.83
					c-0.22-0.29-0.45-0.58-0.65-0.9c-0.2-0.31-0.4-0.63-0.56-0.98c0.35,0.19,0.63,0.43,0.91,0.69c0.28,0.25,0.53,0.53,0.77,0.82
					c0.23,0.3,0.45,0.6,0.63,0.93C13.78,20.04,14,20.38,14,20.79z"/>
			</g>
			<g>
				<path class="st3" d="M15.02,23.23c-0.4-0.35-0.82-0.6-1.27-0.82c-0.45-0.21-0.91-0.39-1.39-0.55c-0.47-0.17-0.96-0.29-1.45-0.42
					c-0.49-0.12-0.99-0.22-1.51-0.3c0.51-0.17,1.05-0.19,1.58-0.16c0.53,0.03,1.06,0.14,1.57,0.3c0.5,0.18,1,0.4,1.44,0.72
					C14.42,22.33,14.82,22.73,15.02,23.23z"/>
			</g>
			<g>
				<path class="st3" d="M10.81,23.27c-0.2,0.03-0.37-0.07-0.51-0.17c-0.14-0.1-0.23-0.24-0.31-0.36c-0.07-0.13-0.13-0.26-0.17-0.39
					c-0.04-0.14-0.07-0.26-0.14-0.44c0.2-0.04,0.38,0.06,0.51,0.17c0.14,0.1,0.23,0.24,0.31,0.36c0.07,0.13,0.13,0.26,0.17,0.39
					C10.72,22.97,10.75,23.09,10.81,23.27z"/>
			</g>
			<g>
				<path class="st3" d="M10.74,24.85c-0.24,0-0.45-0.07-0.65-0.17c-0.2-0.1-0.37-0.24-0.52-0.4c-0.14-0.17-0.27-0.35-0.34-0.56
					c-0.07-0.21-0.12-0.43-0.09-0.66c0.19,0.14,0.34,0.28,0.48,0.42c0.15,0.13,0.27,0.28,0.4,0.41c0.12,0.15,0.25,0.28,0.36,0.45
					C10.51,24.49,10.63,24.64,10.74,24.85z"/>
			</g>
			<g>
				<path class="st3" d="M12.09,20.29c-0.32-0.16-0.59-0.35-0.86-0.53c-0.28-0.17-0.54-0.37-0.8-0.55
					c-0.26-0.19-0.52-0.37-0.78-0.58c-0.26-0.2-0.52-0.4-0.78-0.65c0.36,0.02,0.69,0.12,1,0.25c0.32,0.12,0.62,0.3,0.9,0.5
					c0.27,0.21,0.54,0.43,0.76,0.69C11.76,19.68,11.96,19.96,12.09,20.29z"/>
			</g>
			<g>
				<path class="st3" d="M11.17,20.44c-0.26,0-0.5-0.09-0.72-0.2c-0.22-0.11-0.41-0.26-0.59-0.42c-0.17-0.17-0.33-0.33-0.46-0.53
					c-0.13-0.19-0.26-0.38-0.36-0.63c0.26,0.05,0.48,0.16,0.68,0.29c0.21,0.12,0.38,0.28,0.55,0.43c0.16,0.16,0.32,0.31,0.46,0.49
					C10.88,20.05,11.02,20.22,11.17,20.44z"/>
			</g>
			<g>
				<path class="st3" d="M9.04,20.08c-0.21-0.03-0.38-0.13-0.53-0.25c-0.16-0.11-0.27-0.26-0.37-0.41c-0.09-0.16-0.17-0.33-0.2-0.52
					c-0.03-0.19-0.05-0.39,0.04-0.59c0.16,0.14,0.27,0.26,0.38,0.39c0.12,0.12,0.2,0.26,0.29,0.4c0.08,0.14,0.16,0.28,0.22,0.45
					C8.94,19.72,9,19.88,9.04,20.08z"/>
			</g>
			<g>
				<path class="st3" d="M15.42,17.32c-0.28-0.65-0.67-1.2-1.06-1.77c-0.41-0.56-0.78-1.17-1.1-1.79c-0.32-0.63-0.6-1.28-0.81-1.95
					c-0.21-0.67-0.39-1.35-0.46-2.06l0.89,1.88c0.3,0.62,0.6,1.24,0.91,1.84l0.96,1.83C15.07,15.93,15.38,16.6,15.42,17.32z"/>
			</g>
			<g>
				<path class="st3" d="M15.83,15.07c-0.32-0.16-0.53-0.46-0.71-0.74c-0.18-0.28-0.32-0.55-0.48-0.82l-0.46-0.83
					c-0.15-0.28-0.31-0.56-0.45-0.88c0.32,0.15,0.58,0.36,0.82,0.6c0.25,0.24,0.44,0.52,0.61,0.81c0.16,0.3,0.3,0.62,0.38,0.93
					C15.63,14.45,15.7,14.75,15.83,15.07z"/>
			</g>
			<g>
				<path class="st3" d="M15.94,13.36c-0.2-0.08-0.35-0.18-0.49-0.29c-0.15-0.1-0.26-0.23-0.38-0.35c-0.11-0.13-0.21-0.27-0.29-0.43
					c-0.08-0.16-0.17-0.32-0.21-0.53c0.21,0.03,0.38,0.11,0.54,0.21c0.16,0.09,0.29,0.22,0.42,0.36c0.11,0.14,0.22,0.29,0.29,0.47
					C15.89,12.97,15.95,13.15,15.94,13.36z"/>
			</g>
			<g>
				<path class="st3" d="M17.89,13.73c-0.27-0.15-0.49-0.33-0.72-0.5c-0.23-0.17-0.42-0.36-0.63-0.55c-0.2-0.2-0.4-0.39-0.58-0.6
					c-0.18-0.21-0.37-0.43-0.53-0.69c0.3,0.06,0.57,0.19,0.82,0.34c0.26,0.14,0.48,0.33,0.7,0.53c0.21,0.21,0.4,0.42,0.56,0.68
					C17.68,13.17,17.82,13.43,17.89,13.73z"/>
			</g>
			<g>
				<path class="st3" d="M13.91,15.99c-0.37-0.18-0.68-0.44-0.96-0.73c-0.29-0.28-0.52-0.62-0.73-0.96
					c-0.2-0.35-0.37-0.72-0.47-1.11c-0.11-0.39-0.18-0.79-0.15-1.2c0.22,0.35,0.39,0.69,0.58,1.03l0.56,0.99l0.57,0.98
					C13.51,15.3,13.72,15.63,13.91,15.99z"/>
			</g>
			<g>
				<path class="st3" d="M11.72,14.41c-0.2-0.07-0.34-0.19-0.47-0.32c-0.13-0.13-0.22-0.29-0.29-0.45c-0.06-0.17-0.11-0.34-0.1-0.53
					c0-0.18,0.02-0.37,0.12-0.55c0.15,0.15,0.24,0.29,0.33,0.43c0.09,0.14,0.15,0.28,0.22,0.43c0.05,0.15,0.11,0.29,0.14,0.46
					C11.69,14.04,11.73,14.2,11.72,14.41z"/>
			</g>
			<g>
				<path class="st3" d="M10.81,17.25c-0.29-0.22-0.5-0.49-0.7-0.78c-0.2-0.28-0.35-0.59-0.5-0.91c-0.13-0.32-0.25-0.64-0.31-0.99
					c-0.07-0.34-0.11-0.69-0.07-1.05c0.2,0.3,0.35,0.6,0.51,0.89c0.16,0.3,0.29,0.6,0.42,0.9c0.12,0.31,0.25,0.61,0.35,0.93
					C10.63,16.58,10.74,16.9,10.81,17.25z"/>
			</g>
			<g>
				<path class="st3" d="M9.75,17.25c-0.26-0.12-0.46-0.31-0.63-0.52c-0.18-0.21-0.3-0.45-0.4-0.7c-0.09-0.26-0.16-0.52-0.16-0.8
					c-0.01-0.27,0.01-0.55,0.13-0.81c0.13,0.25,0.22,0.49,0.32,0.71c0.1,0.23,0.18,0.45,0.27,0.68c0.08,0.23,0.17,0.45,0.24,0.69
					C9.6,16.74,9.68,16.98,9.75,17.25z"/>
			</g>
			<g>
				<path class="st3" d="M19.04,8.7c-0.28-0.19-0.51-0.41-0.73-0.64c-0.22-0.23-0.41-0.48-0.6-0.73c-0.17-0.26-0.35-0.53-0.48-0.8
					c-0.15-0.27-0.29-0.52-0.5-0.77c0.34,0.04,0.64,0.26,0.87,0.49c0.24,0.23,0.42,0.48,0.61,0.74c0.17,0.26,0.35,0.52,0.48,0.81
					C18.83,8.08,18.96,8.37,19.04,8.7z"/>
			</g>
			<g>
				<path class="st3" d="M15.75,7.43c-0.25-0.19-0.45-0.42-0.63-0.66c-0.19-0.24-0.33-0.5-0.46-0.76c-0.12-0.27-0.23-0.54-0.3-0.84
					c-0.07-0.29-0.12-0.59-0.11-0.9c0.22,0.23,0.38,0.48,0.53,0.72c0.16,0.24,0.29,0.5,0.41,0.76c0.12,0.26,0.24,0.52,0.32,0.8
					C15.62,6.83,15.71,7.11,15.75,7.43z"/>
			</g>
			<g>
				<path class="st3" d="M13.65,4.85c0.04,0.35,0.05,0.67,0.06,0.99c0.02,0.32,0.01,0.64,0.01,0.96c-0.01,0.32-0.01,0.64-0.03,0.96
					c-0.02,0.32-0.03,0.64-0.04,0.98c-0.23-0.27-0.34-0.61-0.42-0.94c-0.09-0.33-0.1-0.67-0.11-1.01c0.01-0.34,0.04-0.67,0.13-1
					C13.33,5.47,13.44,5.14,13.65,4.85z"/>
			</g>
			<g>
				<path class="st3" d="M20.02,11.23c-0.81-0.43-1.41-1.08-2.02-1.6c-0.3-0.23-0.69-0.44-1.06-0.65c-0.38-0.19-0.76-0.4-1.17-0.58
					c0.45,0,0.89,0.09,1.31,0.23c0.43,0.13,0.84,0.27,1.25,0.54C19.1,9.72,19.62,10.42,20.02,11.23z"/>
			</g>
			<g>
				<path class="st3" d="M16.46,9.72c-0.22,0.01-0.41-0.04-0.59-0.11c-0.19-0.06-0.34-0.16-0.5-0.27c-0.15-0.12-0.29-0.24-0.4-0.4
					c-0.11-0.16-0.22-0.33-0.26-0.55c0.22,0.04,0.39,0.12,0.55,0.19c0.17,0.07,0.32,0.17,0.46,0.28c0.14,0.11,0.28,0.22,0.4,0.37
					C16.25,9.37,16.37,9.52,16.46,9.72z"/>
			</g>
			<g>
				<path class="st3" d="M22.65,7.91c-0.36-0.17-0.69-0.37-1.01-0.57c-0.33-0.19-0.63-0.41-0.94-0.63c-0.3-0.22-0.61-0.44-0.9-0.68
					c-0.29-0.24-0.59-0.48-0.86-0.77c0.39,0.07,0.76,0.22,1.11,0.38c0.36,0.16,0.68,0.37,1,0.59c0.31,0.23,0.61,0.47,0.88,0.76
					C22.19,7.27,22.45,7.56,22.65,7.91z"/>
			</g>
			<g>
				<path class="st3" d="M21.1,7.91c-0.2-0.04-0.35-0.12-0.49-0.2c-0.15-0.08-0.26-0.18-0.38-0.28C20.11,7.32,20,7.21,19.92,7.07
					c-0.09-0.14-0.18-0.28-0.24-0.48c0.2-0.01,0.37,0.05,0.53,0.12c0.16,0.06,0.3,0.17,0.42,0.28c0.12,0.12,0.23,0.24,0.31,0.4
					C21.02,7.55,21.09,7.71,21.1,7.91z"/>
			</g>
			<g>
				<path class="st3" d="M29.59,38.15c-0.63,0.19-1.18,0.56-1.83,0.74c-0.32,0.1-0.66,0.18-1.02,0.21c-0.34,0.02-0.67,0.02-1,0.01
					c-0.65-0.02-1.33-0.08-1.95-0.16c-0.63-0.08-1.28-0.1-1.95-0.15c0.62-0.26,1.3-0.37,1.97-0.39c0.68,0,1.31,0.07,1.96,0.12
					l0.96,0.08c0.3,0.02,0.61-0.02,0.92-0.08C28.29,38.43,28.92,38.18,29.59,38.15z"/>
			</g>
			<g>
				<path class="st3" d="M23.32,37.92c-0.35,0.04-0.64,0.14-0.94,0.24l-0.89,0.34l-0.9,0.34c-0.3,0.12-0.6,0.22-0.92,0.37
					c0.15-0.33,0.43-0.57,0.7-0.77c0.28-0.21,0.59-0.36,0.9-0.49c0.32-0.12,0.66-0.22,1.01-0.23
					C22.63,37.69,23.02,37.71,23.32,37.92z"/>
			</g>
			<g>
				<path class="st3" d="M22.5,37.44c-0.24,0-0.43,0.04-0.63,0.07l-0.56,0.13l-0.53,0.18c-0.2,0.05-0.41,0.13-0.66,0.14
					c0.09-0.24,0.24-0.4,0.41-0.57c0.18-0.15,0.38-0.27,0.64-0.33c0.25-0.05,0.49-0.05,0.72,0.01
					C22.12,37.13,22.36,37.23,22.5,37.44z"/>
			</g>
		</g>
	</g>
</g>
</svg>
